<svg width="151" height="93" viewBox="0 0 151 93" fill="none" xmlns="http://www.w3.org/2000/svg">
<g id="Vector 1">
<mask id="path-1-outside-1_123_1508" maskUnits="userSpaceOnUse" x="0.5" y="0" width="151" height="93" fill="black">
<rect fill="white" x="0.5" width="151" height="93"/>
<path d="M119.5 53C118.36 59.1533 115.396 63.7338 111.195 66.8652C95.3462 58.943 80.0759 48.9183 78 39C73.5 17.5 84.5 12 95.5 14C113.095 17.1991 122.758 35.416 119.5 53Z"/>
</mask>
<path d="M53.5 57.5L52.2851 59.0887L53.5 57.5ZM111.195 66.8652L112.09 65.0762L110.988 64.5254L110 65.2617L111.195 66.8652ZM149.898 84.2868C150.885 83.7906 151.283 82.5884 150.787 81.6015L142.701 65.5201C142.204 64.5332 141.002 64.1355 140.015 64.6317C139.029 65.1279 138.631 66.3301 139.127 67.317L146.315 81.6116L132.02 88.7993C131.033 89.2955 130.635 90.4978 131.132 91.4846C131.628 92.4715 132.83 92.8692 133.817 92.373L149.898 84.2868ZM2.5 2C0.887806 3.18357 0.888014 3.18385 0.888327 3.18428C0.888572 3.18461 0.88899 3.18518 0.88948 3.18585C0.890458 3.18718 0.891856 3.18908 0.893672 3.19155C0.897304 3.19649 0.902609 3.2037 0.90957 3.21316C0.923493 3.23207 0.944044 3.25995 0.971101 3.29659C1.02522 3.36986 1.10536 3.47816 1.21055 3.61973C1.42094 3.90286 1.73157 4.31909 2.13465 4.85442C2.94077 5.92502 4.11689 7.4722 5.60074 9.38379C8.56788 13.2063 12.7683 18.4895 17.7035 24.335C27.547 35.9943 40.4124 50.0096 52.2851 59.0887L54.7149 55.9113C43.2054 47.1099 30.5708 33.3752 20.7599 21.7546C15.8678 15.9602 11.7024 10.721 8.76051 6.93106C7.28984 5.03644 6.12565 3.50491 5.33009 2.44835C4.93233 1.92009 4.62677 1.51064 4.42119 1.23397C4.31839 1.09564 4.2406 0.990513 4.18878 0.920339C4.16287 0.885251 4.14345 0.858903 4.13064 0.841513C4.12424 0.832817 4.11949 0.826361 4.11641 0.822172C4.11487 0.820078 4.11375 0.81855 4.11305 0.817592C4.11269 0.817113 4.11248 0.816823 4.1123 0.816583C4.1122 0.816436 4.11219 0.816433 2.5 2ZM52.2851 59.0887C62.1903 66.6633 73.6309 71.5947 84.3396 73.3702C95.0037 75.1383 105.223 73.8123 112.391 68.4686L110 65.2617C104.029 69.7137 95.0621 71.0934 84.9939 69.4241C74.9704 67.7622 64.1327 63.1131 54.7149 55.9113L52.2851 59.0887ZM110.301 68.6541C119.632 73.318 129.147 77.2522 136.318 80.0177C139.907 81.4015 142.915 82.495 145.028 83.2432C146.085 83.6174 146.918 83.9053 147.488 84.1002C147.773 84.1976 147.993 84.2718 148.142 84.3219C148.216 84.3469 148.273 84.3659 148.312 84.3787C148.331 84.3852 148.346 84.3901 148.356 84.3934C148.361 84.3951 148.365 84.3964 148.367 84.3973C148.369 84.3977 148.37 84.3981 148.37 84.3983C148.371 84.3984 148.371 84.3986 148.371 84.3986C148.372 84.3987 148.372 84.3988 149 82.5C149.628 80.6012 149.628 80.6012 149.628 80.6012C149.628 80.6012 149.628 80.6012 149.628 80.6011C149.627 80.601 149.627 80.6007 149.626 80.6004C149.624 80.5997 149.621 80.5987 149.616 80.5973C149.608 80.5944 149.594 80.59 149.577 80.5841C149.541 80.5722 149.487 80.5542 149.416 80.5302C149.273 80.4823 149.06 80.4102 148.781 80.315C148.224 80.1246 147.405 79.8416 146.363 79.4727C144.28 78.7348 141.307 77.6541 137.758 76.2856C130.654 73.5464 121.267 69.6632 112.09 65.0762L110.301 68.6541ZM111.195 66.8652L109.407 70.4431L111.611 71.5447L113.586 70.072L111.195 66.8652ZM119.5 53L115.567 52.2713L119.5 53ZM95.5 14L94.7845 17.9355L95.5 14ZM78 39L74.0848 39.8195L78 39ZM113.586 70.072C118.632 66.3103 122.118 60.8257 123.433 53.7287L115.567 52.2713C114.602 57.4808 112.159 61.1572 108.805 63.6583L113.586 70.072ZM123.433 53.7287C126.992 34.5215 116.505 13.7535 96.2155 10.0645L94.7845 17.9355C109.685 20.6446 118.524 36.3105 115.567 52.2713L123.433 53.7287ZM96.2155 10.0645C90.001 8.93461 82.8693 9.76144 78.0149 14.9565C73.1562 20.1562 71.7197 28.5192 74.0848 39.8195L81.9152 38.1805C79.7803 27.9808 81.5938 22.8438 83.8601 20.4185C86.1307 17.9886 89.999 17.0654 94.7845 17.9355L96.2155 10.0645ZM74.0848 39.8195C75.4319 46.2554 80.785 51.9977 86.9691 56.8324C93.3283 61.804 101.375 66.4285 109.407 70.4431L112.984 63.2872C105.166 59.3797 97.6536 55.0307 91.8963 50.5298C85.9641 45.892 82.644 41.6629 81.9152 38.1805L74.0848 39.8195Z" fill="#A470E6" mask="url(#path-1-outside-1_123_1508)"/>
</g>
</svg>
