<svg xmlns="http://www.w3.org/2000/svg" width="100" height="28" viewBox="0 0 100 28" fill="none">
  <path d="M5.7006 28L5.7006 0L0 0.0558908L0 28H5.7006Z" fill="white"/>
  <path d="M17.0092 5.7006V28H22.6539V5.7006H31.149V0.0558908L8.51422 0.0558908V5.7006L17.0092 5.7006Z" fill="white"/>
  <path d="M88.5828 0.0444336L81.3173 27.4297V0.0444336L70.1397 0.0444336L62.7065 27.9885H68.3513L75.6167 0.603315V27.9885H86.7944L94.0598 0.603315V27.9885H99.7604V0.0444336L88.5828 0.0444336Z" fill="white"/>
  <path d="M52.1873 26.6445H57.832L50.4548 7.26994L44.8939 7.2699L39.333 7.26994L31.8999 26.6445H37.5446L44.8939 7.2699L52.1873 26.6445Z" fill="white"/>
</svg>