<svg width="24" height="21" viewBox="0 0 24 21" fill="none" xmlns="http://www.w3.org/2000/svg">
<g id="Social">
<path id="Vector" fill-rule="evenodd" clip-rule="evenodd" d="M2.51239 9.34883C8.41795 6.77585 12.3559 5.07959 14.3263 4.26003C19.9521 1.92005 21.1211 1.51357 21.883 1.50014C22.0506 1.49719 22.4253 1.53872 22.668 1.73567C22.873 1.90197 22.9294 2.12661 22.9563 2.28428C22.9833 2.44195 23.0169 2.80112 22.9902 3.08177C22.6854 6.28504 21.3662 14.0585 20.6951 17.6462C20.4111 19.1643 19.852 19.6733 19.3107 19.7231C18.1343 19.8314 17.2409 18.9457 16.1015 18.1988C14.3186 17.03 13.3113 16.3025 11.5807 15.162C9.58058 13.8439 10.8772 13.1195 12.017 11.9356C12.3153 11.6258 17.4986 6.91117 17.5989 6.48348C17.6115 6.42999 17.6231 6.2306 17.5046 6.12532C17.3862 6.02004 17.2114 6.05604 17.0852 6.08467C16.9064 6.12526 14.0581 8.00789 8.54035 11.7326C7.73187 12.2877 6.99958 12.5582 6.34347 12.544C5.62016 12.5284 4.2288 12.1351 3.19447 11.7988C1.92583 11.3865 0.91753 11.1684 1.00533 10.4681C1.05106 10.1033 1.55341 9.73019 2.51239 9.34883Z" fill="#E2E2E2"/>
</g>
</svg>
